<svg width="48" height="48" viewBox="0 0 48 48" fill="none" xmlns="http://www.w3.org/2000/svg">
<g clip-path="url(#clip0_175_33)">
<path fill-rule="evenodd" clip-rule="evenodd" d="M23.9952 0.410912C37.0201 0.410912 47.5795 10.9703 47.5795 23.9952C47.5795 37.0201 37.0201 47.5795 23.9952 47.5795C10.9703 47.5795 0.410889 37.0201 0.410889 23.9952C0.410889 10.9703 10.9703 0.410912 23.9952 0.410912Z" fill="#FFCC00"/>
<path d="M23.9953 0C30.6176 0 36.6188 2.68525 40.9668 7.03325C45.3052 11.3717 48 17.3729 48 24.0048C48 30.6271 45.3148 36.6283 40.9668 40.9763C36.6283 45.3148 30.6271 48.0096 23.9953 48.0096C17.3729 48.0096 11.3717 45.3243 7.02373 40.9763C2.68528 36.6379 -0.00952148 30.6367 -0.00952148 24.0048C-0.00952148 17.3824 2.67573 11.3812 7.02373 7.03325C11.3622 2.6948 17.3634 0 23.9953 0ZM40.3743 7.61617C36.1792 3.42106 30.3882 0.831376 23.9953 0.831376C17.5927 0.831376 11.8017 3.42106 7.6162 7.61617C3.4211 11.8113 0.83141 17.6022 0.83141 23.9952C0.83141 30.3978 3.4211 36.1887 7.6162 40.3743C11.8113 44.5694 17.6023 47.1591 23.9953 47.1591C30.3978 47.1591 36.1888 44.5694 40.3743 40.3743C44.5694 36.1792 47.1591 30.3882 47.1591 23.9952C47.1591 17.5927 44.5694 11.8017 40.3743 7.61617Z" fill="#333333"/>
<path d="M23.9952 2.8477C29.8339 2.8477 35.128 5.2176 38.9504 9.04002C42.7824 12.872 45.1427 18.1565 45.1427 23.9952C45.1427 29.834 42.7728 35.128 38.9504 38.9504C35.1184 42.7824 29.8339 45.1427 23.9952 45.1427C18.1564 45.1427 12.8624 42.7728 9.03997 38.9504C5.208 35.1185 2.84766 29.834 2.84766 23.9952C2.84766 18.1565 5.21755 12.8624 9.03997 9.04002C12.8719 5.20804 18.1564 2.8477 23.9952 2.8477ZM38.8357 9.16425C35.042 5.3705 29.7957 3.01971 23.9952 3.01971C18.2042 3.01971 12.9579 5.3705 9.15464 9.16425C5.3609 12.958 3.01011 18.2043 3.01011 24.0048C3.01011 29.7957 5.3609 35.042 9.15464 38.8453C12.9484 42.6391 18.1947 44.9898 23.9952 44.9898C29.7861 44.9898 35.0324 42.6391 38.8357 38.8453C42.6295 35.0516 44.9802 29.8053 44.9802 24.0048C44.9802 18.2138 42.6295 12.9676 38.8357 9.16425Z" fill="#333333"/>
<path fill-rule="evenodd" clip-rule="evenodd" d="M25.0369 1.74876L25.0273 2.15967C24.3489 2.14055 23.699 2.131 23.011 2.15967L22.9919 1.74876C23.3264 1.72964 23.6608 1.72964 23.9953 1.72964C24.3393 1.72964 24.6833 1.7392 25.0273 1.75831L25.0369 1.74876ZM26.6901 1.88254L26.8908 1.91121C27.2348 1.95899 27.5788 2.00677 27.9133 2.06411L27.8464 2.47502C27.445 2.40812 27.0437 2.35079 26.6327 2.29345L26.6805 1.88254H26.6901ZM29.5378 2.41768L29.5951 2.43679C29.9774 2.53235 30.3596 2.64702 30.7323 2.7617L30.6176 3.1535C30.2258 3.03882 29.834 2.92415 29.4327 2.81903L29.5378 2.41768ZM32.2899 3.31595C32.6722 3.46884 33.0544 3.6313 33.4271 3.81286L33.2551 4.18555C32.8824 4.01354 32.5097 3.85109 32.1275 3.69819L32.2804 3.31595H32.2899ZM34.8987 4.56779L35.0803 4.67291C35.3765 4.84491 35.6728 5.02648 35.969 5.20804L35.7492 5.56162C35.4052 5.34183 35.0516 5.1316 34.698 4.93092L34.8987 4.56779ZM37.3833 6.19232C37.6986 6.43122 38.0044 6.67012 38.3007 6.92813L38.0427 7.24348C37.7273 6.98547 37.412 6.72746 37.0775 6.479L37.326 6.15409L37.3737 6.19232H37.3833ZM39.5334 8.03663C39.8296 8.32331 40.1163 8.61955 40.403 8.92534L40.1068 9.21203C39.8201 8.91579 39.543 8.61955 39.2467 8.33287L39.5334 8.03663ZM41.5784 10.311C41.7982 10.5977 42.018 10.8843 42.2187 11.1806L41.8842 11.4195C41.6453 11.085 41.4064 10.7601 41.1484 10.4352L41.4733 10.1772L41.5784 10.3014V10.311ZM43.1265 12.5662C43.3367 12.9198 43.5374 13.2829 43.7381 13.646L43.3749 13.8371C43.1743 13.474 42.9831 13.1204 42.7729 12.7669L43.1265 12.5566V12.5662ZM44.4548 15.1463L44.5408 15.3374C44.6746 15.6528 44.7988 15.9777 44.923 16.3026L44.5408 16.4459C44.3974 16.0637 44.2445 15.6815 44.0821 15.3088L44.4643 15.1463H44.4548ZM45.4295 17.8698L45.4486 17.9558C45.5537 18.3285 45.6493 18.7012 45.7353 19.0739L45.3339 19.1694C45.2384 18.7681 45.1428 18.3763 45.0281 17.9845L45.4295 17.8698ZM46.0411 20.6984C46.0984 21.1093 46.1462 21.5202 46.1844 21.9311L45.7735 21.9693C45.7353 21.5584 45.6875 21.1571 45.6302 20.7557L46.0411 20.6984ZM46.28 23.5843C46.28 23.7181 46.2895 23.8519 46.2895 23.9952C46.2895 24.2723 46.28 24.5495 46.2704 24.8266L45.8595 24.817C45.8691 24.4061 45.8786 24.0048 45.8691 23.5939L46.28 23.5843ZM46.1462 26.4798C46.0984 26.8907 46.0411 27.3016 45.9742 27.7125L45.5728 27.6552C45.6302 27.2443 45.6971 26.8525 45.7353 26.4416L46.1462 26.4893V26.4798ZM45.6397 29.3371L45.5919 29.5377C45.5059 29.8722 45.4104 30.2067 45.3148 30.5316L44.923 30.4169C45.0377 30.0251 45.1428 29.6333 45.2479 29.2319L45.6493 29.3275L45.6397 29.3371ZM44.7701 32.0987L44.7414 32.1656C44.5981 32.5288 44.4452 32.8823 44.2828 33.2359L43.9101 33.0639C44.0725 32.6912 44.235 32.3185 44.3879 31.9363L44.7701 32.0892V32.0987ZM43.5374 34.7267C43.3367 35.0898 43.1265 35.4434 42.9067 35.7969L42.5531 35.5867C42.7633 35.2331 42.9736 34.8891 43.1743 34.526L43.5374 34.7267ZM41.9798 37.173L41.8555 37.3355C41.6453 37.6126 41.4351 37.8801 41.2153 38.1477L40.8904 37.8897C41.1484 37.5648 41.3968 37.2495 41.6453 36.915L41.9798 37.1634V37.173ZM40.0685 39.4378C39.801 39.7245 39.5143 39.992 39.2276 40.2596L38.9409 39.9634C39.2372 39.6767 39.5238 39.39 39.8105 39.0938L40.1068 39.3804L40.059 39.4282L40.0685 39.4378ZM37.9853 41.349L37.8229 41.4828C37.5553 41.693 37.2782 41.9032 36.9915 42.1039L36.743 41.7695C37.0775 41.521 37.3929 41.2821 37.7178 41.0241L37.9758 41.349H37.9853ZM35.6154 43.0213L35.5008 43.0882C35.1854 43.2793 34.8605 43.4609 34.5356 43.6424L34.3349 43.2793C34.698 43.0786 35.0421 42.878 35.3956 42.6677L35.6059 43.0213H35.6154ZM33.0544 44.3687C32.6722 44.5407 32.2899 44.6936 31.9077 44.8369L31.7548 44.4547C32.137 44.3018 32.5097 44.1489 32.892 43.9865L33.0544 44.3687ZM30.3309 45.3721L30.1303 45.4294C29.7958 45.525 29.4613 45.611 29.1269 45.6874L29.0313 45.2861C29.4327 45.1905 29.8245 45.0854 30.2163 44.9707L30.3309 45.3625V45.3721ZM27.5023 46.0123L27.3017 46.041C26.9577 46.0888 26.6136 46.1366 26.2696 46.1652L26.2218 45.7543C26.6327 45.7066 27.0341 45.6588 27.4355 45.5919L27.5023 46.0028V46.0123ZM24.6164 46.2799H24.5209C24.3489 46.2799 24.1768 46.2895 24.0048 46.2895C23.7946 46.2895 23.5844 46.2895 23.3646 46.2799L23.3741 45.869C23.785 45.8786 24.196 45.8786 24.6069 45.869L24.6164 46.2799ZM21.6732 46.1652C21.2718 46.127 20.88 46.0697 20.4882 46.0123L20.5455 45.6014C20.9565 45.6588 21.3578 45.7161 21.7592 45.7543L21.7114 46.1652L21.6636 46.1557L21.6732 46.1652ZM18.8637 45.6874C18.4623 45.5919 18.061 45.4868 17.6596 45.3625L17.7743 44.9707C18.1661 45.0854 18.5579 45.1905 18.9592 45.2861L18.8637 45.6874ZM16.0924 44.8369C15.7006 44.6936 15.3184 44.5312 14.9457 44.3591L15.1082 43.9769C15.4904 44.1394 15.8631 44.2923 16.2453 44.4451L16.0924 44.8274V44.8369ZM13.3021 43.5469C12.9867 43.3749 12.6809 43.1933 12.3751 43.0117L12.5854 42.6582C12.9389 42.8684 13.283 43.0691 13.6461 43.2698L13.4454 43.6329L13.2925 43.5469H13.3021ZM10.9991 42.0944C10.6646 41.8555 10.3301 41.5975 10.0148 41.3394L10.2728 41.0145C10.5977 41.2725 10.9131 41.5114 11.2475 41.7599L11.0086 42.0944H10.9991ZM8.76295 40.25L8.61005 40.1067C8.3616 39.8678 8.11314 39.6289 7.87424 39.3709L8.17047 39.0842C8.45716 39.3805 8.74384 39.6671 9.04007 39.9443L8.75339 40.2405L8.76295 40.25ZM6.75618 38.0999C6.50772 37.7941 6.25927 37.4788 6.02992 37.1539L6.36438 36.9054C6.61284 37.2303 6.8613 37.5552 7.11931 37.8706L6.7944 38.1286L6.76574 38.0904L6.75618 38.0999ZM5.09343 35.7874L4.98831 35.6154C4.80675 35.3191 4.63474 35.0229 4.47229 34.7171L4.82586 34.5164C5.02654 34.87 5.23677 35.2236 5.447 35.5771L5.09343 35.7969V35.7874ZM3.72691 33.2359L3.67913 33.1308C3.52624 32.7868 3.3829 32.4428 3.24911 32.0987L3.63135 31.9459C3.78425 32.3281 3.93715 32.7008 4.10916 33.0735L3.73647 33.2455L3.72691 33.2359ZM2.70442 30.522C2.58019 30.1302 2.47507 29.7288 2.37951 29.3275L2.78087 29.2224C2.88598 29.6237 2.9911 30.006 3.10577 30.4073L2.71397 30.522H2.70442ZM2.04505 27.703L2.00683 27.5023C1.94949 27.1583 1.91127 26.8238 1.87304 26.4798L2.28395 26.432C2.33173 26.8429 2.38907 27.2443 2.45596 27.6456L2.04505 27.7125V27.703ZM1.75837 24.817L1.74881 24.6068C1.73926 24.4061 1.73926 24.2055 1.73926 24.0048C1.73926 23.8614 1.73926 23.7181 1.74881 23.5652H2.15972C2.15972 23.9761 2.15972 24.3775 2.16928 24.7884L1.75837 24.7979V24.817ZM1.84437 21.9216L1.86349 21.7113C1.90171 21.3673 1.93993 21.0233 1.99727 20.6793L2.40818 20.7366C2.35084 21.1475 2.30306 21.5489 2.26484 21.9502L1.85393 21.912L1.84437 21.9216ZM2.34129 18.8923C2.42729 18.5387 2.5133 18.1947 2.60886 17.8507L3.01021 17.9558C2.90509 18.3572 2.79998 18.7394 2.70442 19.1408L2.30306 19.0452L2.34129 18.8827V18.8923ZM3.12488 16.2739C3.26822 15.8821 3.42112 15.4999 3.59313 15.1177L3.97537 15.2801C3.81292 15.6624 3.66002 16.035 3.51668 16.4173L3.13444 16.2739H3.12488ZM4.30983 13.6269L4.40539 13.4454C4.56785 13.1396 4.73985 12.8433 4.92142 12.5471L5.27499 12.7573C5.06476 13.1109 4.86408 13.4645 4.67296 13.8276L4.30983 13.6365V13.6269ZM5.82924 11.1615L5.88658 11.085C6.10637 10.7697 6.33571 10.4639 6.57462 10.1676L6.89952 10.4161C6.65106 10.741 6.40261 11.0659 6.1637 11.4004L5.82924 11.1615ZM7.65445 8.90623C7.93157 8.60044 8.22781 8.3042 8.52405 8.01752L8.81073 8.3042C8.52405 8.59088 8.23737 8.88712 7.95068 9.18336L7.64489 8.90623H7.65445ZM9.75678 6.90902L9.91923 6.77524C10.1868 6.55545 10.4544 6.34521 10.7315 6.13498L10.98 6.45989C10.655 6.70834 10.3397 6.9568 10.0148 7.22437L9.75678 6.90902ZM12.098 5.19849C12.4516 4.9787 12.8052 4.76847 13.1683 4.55823L13.369 4.91181C13.0154 5.11248 12.6618 5.32272 12.3178 5.54251L12.098 5.18893V5.19849ZM14.6399 3.80331L14.831 3.7173C15.1464 3.57396 15.4617 3.44018 15.7866 3.30639L15.9395 3.68863C15.5573 3.85109 15.1846 4.00398 14.8119 4.17599L14.6399 3.80331ZM17.5067 2.70436C17.8507 2.59924 18.1948 2.50368 18.5388 2.41768L18.6439 2.81903C18.2425 2.92415 17.8603 3.03882 17.4685 3.1535L17.3443 2.7617L17.5067 2.71392V2.70436ZM20.2206 2.05455C20.6029 1.98766 20.9947 1.93032 21.3865 1.88254L21.4438 2.29345C21.0329 2.35079 20.6316 2.40812 20.2302 2.47502L20.1633 2.06411L20.2302 2.05455H20.2206Z" fill="#333333"/>
<path fill-rule="evenodd" clip-rule="evenodd" d="M27.6553 8.39976C30.5125 9.06868 33.0735 10.5021 35.1185 12.4706V35.5389C33.0735 37.5075 30.5125 38.9409 27.6553 39.6098V27.0436H20.3353V39.6098C17.4781 38.9409 14.9171 37.5075 12.8721 35.5389V12.4706C14.9171 10.5021 17.4781 9.06868 20.3353 8.39976V20.966H27.6553V8.39976Z" fill="white"/>
</g>
<defs>
<clipPath id="clip0_175_33">
<rect width="48" height="48" fill="white"/>
</clipPath>
</defs>
</svg>
