<svg width="329" height="110" viewBox="0 0 329 110" fill="none" xmlns="http://www.w3.org/2000/svg">
<path fill-rule="evenodd" clip-rule="evenodd" d="M54.7363 0.945312C84.4435 0.945312 108.527 25.029 108.527 54.7363C108.527 84.4435 84.4435 108.527 54.7363 108.527C25.029 108.527 0.945312 84.4435 0.945312 54.7363C0.945312 25.029 25.0267 0.945312 54.7363 0.945312Z" fill="#FFCC00"/>
<path d="M54.7363 0C69.8521 0 83.535 6.1273 93.4413 16.0313C103.345 25.9352 109.473 39.6204 109.473 54.7363C109.473 69.8521 103.345 83.535 93.4413 93.4413C83.5373 103.345 69.8521 109.473 54.7363 109.473C39.6204 109.473 25.9375 103.345 16.0313 93.4413C6.1273 83.5373 0 69.8521 0 54.7363C0 39.6204 6.1273 25.9375 16.0313 16.0313C25.9352 6.1273 39.6204 0 54.7363 0ZM92.1027 17.3676C82.5391 7.80402 69.3277 1.88833 54.7363 1.88833C40.1425 1.88833 26.9311 7.80402 17.3699 17.3676C7.80632 26.9311 1.89293 40.1425 1.89293 54.734C1.89293 69.3277 7.80862 82.5391 17.3699 92.1004C26.9334 101.664 40.1448 107.58 54.7363 107.58C69.33 107.58 82.5414 101.664 92.1027 92.1004C101.666 82.5368 107.582 69.3254 107.582 54.734C107.582 40.1402 101.666 26.9288 92.1027 17.3676Z" fill="#333333"/>
<path d="M54.7363 6.4953C68.0581 6.4953 80.1195 11.8958 88.8482 20.6244C97.5768 29.3531 102.977 41.4145 102.977 54.7363C102.977 68.0581 97.5768 80.1195 88.8482 88.8481C80.1195 97.5768 68.0581 102.977 54.7363 102.977C41.4145 102.977 29.3531 97.5768 20.6245 88.8481C11.8958 80.1195 6.49536 68.0581 6.49536 54.7363C6.49536 41.4145 11.8958 29.3531 20.6245 20.6244C29.3531 11.8958 41.4145 6.4953 54.7363 6.4953ZM88.5791 20.8912C79.9171 12.2293 67.9523 6.87251 54.7363 6.87251C41.5203 6.87251 29.5532 12.2293 20.8936 20.8912C12.2317 29.5532 6.87487 41.518 6.87487 54.734C6.87487 67.95 12.2317 79.9171 20.8936 88.5767C29.5555 97.2386 41.5203 102.595 54.7363 102.595C67.9523 102.595 79.9194 97.2386 88.5791 88.5767C97.241 79.9148 102.598 67.95 102.598 54.734C102.598 41.518 97.241 29.5509 88.5791 20.8912Z" fill="#333333"/>
<path fill-rule="evenodd" clip-rule="evenodd" d="M57.096 3.98136L57.0661 4.91978C55.5136 4.86918 54.0278 4.86228 52.4753 4.91978L52.4408 3.97906C53.2021 3.94456 53.9657 3.92616 54.7362 3.92616C55.5274 3.92616 56.314 3.94686 57.096 3.98136ZM60.8612 4.29417L61.3281 4.34937C62.1124 4.45057 62.8921 4.57017 63.6649 4.70818L63.5108 5.63509C62.5839 5.48329 61.6731 5.34529 60.7416 5.22568L60.8612 4.29187V4.29417ZM67.3588 5.50629L67.4899 5.54079C68.3639 5.76619 69.2287 6.0169 70.082 6.2883L69.8106 7.18761C68.9113 6.91621 68.0258 6.66091 67.1173 6.4194L67.3588 5.50859V5.50629ZM73.6402 7.56022C74.5188 7.91213 75.3859 8.28933 76.2392 8.68954L75.8528 9.54285C74.9972 9.15645 74.1531 8.78614 73.2837 8.42963L73.6402 7.55792V7.56022ZM79.5996 10.4169L80.0113 10.6492C80.6967 11.0402 81.3683 11.4496 82.0307 11.8728L81.5339 12.6709C80.7404 12.1764 79.9492 11.7003 79.135 11.238L79.5996 10.4192V10.4169ZM85.26 14.113C85.9753 14.6512 86.6745 15.2101 87.3599 15.7829L86.7665 16.5097C86.0397 15.9163 85.3175 15.3412 84.57 14.7731L85.1381 14.021L85.2577 14.113H85.26ZM90.1637 18.3175C90.8399 18.9753 91.5 19.6538 92.1394 20.3484L91.4563 20.9924C90.8123 20.3093 90.1706 19.6469 89.5036 18.9868L90.1637 18.3175ZM94.8235 23.5133C95.3272 24.1596 95.8171 24.8197 96.291 25.4913L95.5273 26.041C94.9799 25.282 94.4302 24.5414 93.8529 23.8054L94.5935 23.2235L94.8235 23.5156V23.5133ZM98.3518 28.6585C98.8371 29.4681 99.2994 30.2915 99.7387 31.131L98.9153 31.5772C98.4668 30.7515 98.0183 29.9465 97.5399 29.1392L98.3495 28.6608L98.3518 28.6585ZM101.372 34.5373L101.56 34.9721C101.869 35.6943 102.156 36.428 102.43 37.1686L101.551 37.5021C101.218 36.6258 100.875 35.7679 100.509 34.9054L101.374 34.5397L101.372 34.5373ZM103.6 40.759L103.653 40.9522C103.89 41.794 104.104 42.6473 104.3 43.5052L103.384 43.7214C103.168 42.8083 102.94 41.9159 102.692 41.0097L103.6 40.759ZM104.992 47.2198C105.13 48.149 105.24 49.0874 105.328 50.035L104.394 50.1293C104.3 49.1955 104.189 48.2801 104.06 47.3508L104.992 47.2198ZM105.535 53.8071C105.539 54.1153 105.546 54.4258 105.546 54.7363C105.546 55.3757 105.53 56.0082 105.507 56.6407L104.571 56.6177C104.596 55.6793 104.606 54.757 104.594 53.8209L105.535 53.8094V53.8071ZM105.229 60.4082C105.123 61.3512 104.994 62.2873 104.838 63.2142L103.913 63.0739C104.054 62.147 104.187 61.2339 104.295 60.3024L105.231 60.4105L105.229 60.4082ZM104.072 66.915L103.959 67.3727C103.764 68.1386 103.55 68.8953 103.32 69.6474L102.418 69.3852C102.68 68.4836 102.931 67.5958 103.159 66.6873L104.072 66.915ZM102.078 73.2148L102.016 73.3781C101.689 74.2038 101.34 75.0203 100.972 75.8253L100.111 75.4435C100.493 74.5856 100.852 73.7369 101.204 72.8652L102.076 73.2148H102.078ZM99.2741 79.1995C98.8187 80.0275 98.338 80.8417 97.8389 81.6421L97.0385 81.1568C97.5261 80.3541 97.9953 79.5606 98.453 78.7418L99.2741 79.2018V79.1995ZM95.7159 84.7701L95.4353 85.1496C94.9638 85.7822 94.4762 86.4009 93.9771 87.0081L93.2434 86.4193C93.8322 85.6879 94.4003 84.9587 94.9615 84.2066L95.7136 84.7701H95.7159ZM91.3643 89.9429C90.7456 90.5869 90.1062 91.2148 89.4552 91.8267L88.8043 91.1527C89.4782 90.4995 90.1384 89.8555 90.7916 89.1793L91.4701 89.8348L91.3643 89.9429ZM86.6032 94.3061L86.2352 94.6028C85.6188 95.0904 84.9886 95.5642 84.3492 96.0242L83.7926 95.2698C84.547 94.7109 85.283 94.1543 86.019 93.5701L86.6055 94.3061H86.6032ZM81.2027 98.115L80.952 98.2668C80.2275 98.7038 79.4915 99.1224 78.744 99.5249L78.2909 98.7015C79.1143 98.2484 79.9124 97.7907 80.7197 97.3076L81.2027 98.115ZM75.3514 101.186C74.4912 101.567 73.6149 101.926 72.7294 102.262L72.3867 101.39C73.2607 101.048 74.114 100.698 74.9742 100.323L75.3514 101.186ZM69.1482 103.467L68.6951 103.601C67.9407 103.817 67.1771 104.015 66.4089 104.194L66.1812 103.283C67.092 103.055 67.9844 102.823 68.8837 102.561L69.1459 103.465L69.1482 103.467ZM62.7012 104.921L62.2435 104.99C61.4638 105.105 60.6795 105.204 59.8883 105.284L59.7825 104.35C60.714 104.245 61.6294 104.13 62.5563 103.989L62.6989 104.921H62.7012ZM56.1185 105.526L55.9069 105.53C55.5159 105.539 55.1272 105.544 54.7339 105.544C54.2486 105.544 53.7656 105.535 53.2826 105.521L53.2941 104.583C54.2348 104.594 55.1571 104.599 56.0978 104.58L56.1162 105.523L56.1185 105.526ZM49.3955 105.266C48.4893 105.171 47.5923 105.052 46.7022 104.912L46.8379 103.982C47.7671 104.118 48.6802 104.24 49.614 104.341L49.5128 105.28L49.3955 105.268V105.266ZM42.9945 104.18C42.0722 103.962 41.1591 103.718 40.2575 103.449L40.5128 102.547C41.4144 102.802 42.3068 103.042 43.2176 103.265L42.9945 104.18ZM36.6763 102.239C35.7908 101.903 34.9168 101.542 34.0566 101.16L34.4269 100.3C35.2894 100.67 36.1404 101.025 37.0167 101.365L36.6763 102.241V102.239ZM30.3213 99.3064C29.606 98.9154 28.9022 98.506 28.2099 98.0805L28.6929 97.2731C29.4956 97.7539 30.2937 98.2162 31.1148 98.6647L30.664 99.4927L30.3213 99.3064ZM25.0634 95.9851C24.2952 95.4331 23.5454 94.8581 22.8117 94.2647L23.3913 93.5287C24.1296 94.1083 24.861 94.6718 25.6177 95.2238L25.0634 95.9851ZM19.9619 91.783L19.6192 91.4587C19.0488 90.9158 18.4922 90.3592 17.9494 89.7888L18.6233 89.131C19.2788 89.8026 19.9343 90.4535 20.6129 91.1021L19.9642 91.783H19.9619ZM15.3757 86.8724C14.8007 86.1709 14.2464 85.451 13.7104 84.7195L14.4626 84.156C15.0238 84.9059 15.585 85.6373 16.1784 86.3618L15.447 86.9575L15.3757 86.8701V86.8724ZM11.5921 81.5892L11.3437 81.1867C10.932 80.5151 10.5387 79.8343 10.1592 79.142L10.9757 78.6796C11.4403 79.4962 11.9026 80.2943 12.3948 81.0947L11.5944 81.5869L11.5921 81.5892ZM8.46406 75.7678L8.35136 75.5194C8.00175 74.742 7.67285 73.9531 7.36234 73.1573L8.23406 72.8077C8.58366 73.6794 8.94247 74.5281 9.32197 75.386L8.46176 75.7678H8.46406ZM6.12492 69.5853C5.85122 68.6837 5.60052 67.7729 5.37511 66.8529L6.28363 66.6206C6.51823 67.5291 6.75973 68.4192 7.02654 69.3185L6.12492 69.5876V69.5853ZM4.6161 63.1521L4.5379 62.6852C4.416 61.9101 4.3125 61.1304 4.22739 60.3438L5.15891 60.2311C5.26931 61.1626 5.39581 62.0757 5.54302 63.0026L4.6161 63.1498V63.1521ZM3.95599 56.5763L3.93989 56.1048C3.92609 55.6517 3.91919 55.194 3.91919 54.7386C3.91919 54.4051 3.92609 54.0739 3.93069 53.7427L4.8691 53.7496C4.8622 54.688 4.8668 55.6103 4.8967 56.5464L3.95599 56.5763ZM4.14459 49.9706L4.18829 49.5014C4.26879 48.7148 4.3677 47.9328 4.485 47.1576L5.41651 47.2888C5.28771 48.218 5.17501 49.1334 5.08071 50.0672L4.14689 49.9729L4.14459 49.9706ZM5.26931 43.0682C5.45791 42.2701 5.66262 41.4812 5.88802 40.6968L6.79424 40.9406C6.55043 41.8469 6.31583 42.7393 6.10422 43.6524L5.18421 43.4408L5.27161 43.0659L5.26931 43.0682ZM7.06564 37.1065C7.39454 36.2187 7.74875 35.3424 8.12596 34.4775L8.99077 34.8433C8.62506 35.7081 8.28006 36.5637 7.94655 37.44L7.06794 37.1065H7.06564ZM9.76128 31.0735L9.98209 30.6549C10.357 29.9603 10.7457 29.2772 11.1528 28.6033L11.9624 29.0748C11.4909 29.8867 11.0332 30.6871 10.5916 31.5174L9.76128 31.0735ZM13.2159 25.4384L13.3378 25.2659C13.8461 24.5529 14.3729 23.856 14.918 23.1706L15.6609 23.7456C15.0859 24.4885 14.5316 25.2245 13.9818 25.9858L13.2182 25.4361L13.2159 25.4384ZM17.3744 20.3001C18.0161 19.6055 18.6739 18.9293 19.3524 18.2715L20.0148 18.9339C19.3501 19.5986 18.7038 20.2541 18.0644 20.9418L17.3744 20.3001ZM22.1608 15.7415L22.5242 15.4401C23.1337 14.941 23.7524 14.4557 24.3826 13.9842L24.9553 14.7317C24.2101 15.3021 23.4856 15.8726 22.7611 16.4706L22.1608 15.7437V15.7415ZM27.4946 11.8383C28.2904 11.3323 29.1023 10.847 29.928 10.3847L30.3949 11.1989C29.5807 11.6658 28.7895 12.1396 27.9914 12.6341L27.4946 11.836V11.8383ZM33.2907 8.66194L33.7185 8.46184C34.4338 8.13523 35.1583 7.82702 35.892 7.53492L36.2531 8.40203C35.386 8.76314 34.5373 9.12425 33.684 9.51755L33.2907 8.66194ZM39.8205 6.1503C40.5979 5.91109 41.3822 5.69029 42.1757 5.49019L42.4195 6.3964C41.5133 6.64021 40.6255 6.88861 39.7285 7.16691L39.4479 6.2676L39.8182 6.1526L39.8205 6.1503ZM46.0122 4.67367C46.8931 4.52187 47.7809 4.39307 48.6756 4.28727L48.7998 5.21648C47.8706 5.34069 46.9575 5.46949 46.0329 5.62819L45.8719 4.69898L46.0145 4.67367H46.0122Z" fill="#333333"/>
<path fill-rule="evenodd" clip-rule="evenodd" d="M63.0831 19.1501C69.5968 20.6727 75.4389 23.9365 80.0942 28.4262V81.0464C75.4389 85.5361 69.5968 88.7998 63.0831 90.3224V61.6686H46.3848V90.3224C39.8711 88.7998 34.0291 85.5361 29.3738 81.0464V28.4262C34.0291 23.9388 39.8711 20.6727 46.3848 19.1501V47.804H63.0831V19.1501Z" fill="#333333"/>
<path d="M122.36 27.4302C122.461 28.8563 123.031 29.9948 124.076 30.8481C125.12 31.7014 126.445 32.1269 128.05 32.1269C129.494 32.1269 130.665 31.8118 131.558 31.1793C132.45 30.5468 132.896 29.6682 132.896 28.5458C132.896 27.7223 132.65 27.0714 132.158 26.5884C131.666 26.1077 131.033 25.7512 130.26 25.5189C129.487 25.2889 128.439 25.0612 127.114 24.8427C125.007 24.4816 123.33 23.8905 122.086 23.0671C120.842 22.2437 120.218 20.9096 120.218 19.0627C120.218 17.8782 120.52 16.8294 121.122 15.9163C121.725 15.0031 122.571 14.2947 123.666 13.7933C124.761 13.2919 126.01 13.0412 127.415 13.0412C128.901 13.0412 130.214 13.3126 131.36 13.8531C132.503 14.3959 133.407 15.1526 134.069 16.1256C134.732 17.0985 135.102 18.2186 135.182 19.4813H132.593C132.432 18.2577 131.88 17.2733 130.937 16.5304C129.994 15.7875 128.818 15.4171 127.413 15.4171C126.008 15.4171 124.894 15.723 124.071 16.3349C123.247 16.9467 122.836 17.8046 122.836 18.9086C122.836 19.7113 123.077 20.3392 123.558 20.79C124.039 21.2408 124.662 21.5835 125.423 21.8135C126.187 22.0435 127.229 22.2713 128.554 22.4898C130.661 22.8509 132.346 23.4489 133.611 24.2815C134.876 25.1141 135.509 26.455 135.509 28.2996C135.509 29.5049 135.194 30.5767 134.561 31.522C133.929 32.465 133.046 33.1987 131.912 33.7208C130.778 34.2429 129.478 34.5028 128.013 34.5028C126.369 34.5028 124.933 34.2061 123.707 33.615C122.484 33.0239 121.534 32.189 120.862 31.1172C120.191 30.0431 119.823 28.8149 119.763 27.4302H122.353H122.36Z" fill="#333333"/>
<path d="M138.828 13.2206H141.445V22.4024H152.345V13.2206H154.963V34.3257H152.345V24.8128H141.445V34.3257H138.828V13.2206Z" fill="#333333"/>
<path d="M159.057 13.2505H161.676V34.3257H159.057V13.2505Z" fill="#333333"/>
<path d="M163.995 13.2505H166.764L173.207 31.2253L179.619 13.2505H182.328L174.743 34.3257H171.58L163.995 13.2505Z" fill="#333333"/>
<path d="M192.716 13.2505C194.1 13.2505 195.324 13.5173 196.389 14.0486C197.451 14.5799 198.275 15.332 198.857 16.3073C199.439 17.2802 199.731 18.4187 199.731 19.7228C199.731 21.1879 199.324 22.4576 198.512 23.5317C197.7 24.6058 196.609 25.3326 195.246 25.7144L199.972 34.3234H197.021L192.656 26.225H187.267V34.3234H184.647V13.2505H192.716ZM187.267 23.8169H192.506C193.891 23.8169 194.995 23.4466 195.818 22.7037C196.642 21.9607 197.053 20.9671 197.053 19.7228C197.053 18.4992 196.642 17.5148 195.818 16.7719C194.995 16.029 193.902 15.6586 192.536 15.6586H187.267V23.8169Z" fill="#333333"/>
<path d="M200.904 34.3257L208.942 13.2528H212.043L220.051 34.3257H217.252L215.023 28.6355H205.842L203.613 34.3257H200.904ZM206.624 26.2572H214.239L210.417 16.1118L206.624 26.2572Z" fill="#333333"/>
<path d="M222.43 13.2505H225.047V34.3257H222.43V13.2505Z" fill="#333333"/>
<path d="M118.868 95.716V40.2759H129.655V63.8513H136.657V40.2759H147.444V95.716H136.657V67.7821H129.655V95.716H118.868Z" fill="#333333"/>
<path d="M180.953 63.5661V72.4258C180.953 87.2864 179.739 90.3592 177.524 93.0733C175.81 95.2169 172.307 96.4313 166.449 96.4313C160.733 96.4313 157.233 95.2169 155.519 93.0733C153.304 90.3592 152.09 87.2864 152.09 72.4258V63.5661C152.09 48.7056 153.304 45.6327 155.519 42.9187C157.235 40.775 160.736 39.5606 166.449 39.5606C172.307 39.5606 175.808 40.775 177.524 42.9187C179.739 45.6327 180.953 48.7056 180.953 63.5661ZM170.308 86.785V48.7769C170.308 45.4188 170.237 42.9187 166.451 42.9187C165.166 42.9187 164.45 43.2039 164.022 43.5627C163.307 44.0618 162.737 45.2785 162.737 48.7792V86.7873C162.737 90.5731 163.307 91.8589 164.022 92.4316C164.45 92.7881 165.166 93.0756 166.451 93.0756C167.808 93.0756 168.524 92.7904 169.023 92.4316C169.738 91.8612 170.308 90.5731 170.308 86.7873V86.785Z" fill="#333333"/>
<path d="M203.385 95.716V46.8494C203.385 45.9915 202.813 45.4924 201.886 45.4924C200.457 45.4924 198.314 46.6355 196.384 48.1352V95.716H185.597V40.2759H196.384V44.7771C199.169 42.2057 202.67 39.5606 207.385 39.5606C211.314 39.5606 214.173 41.9895 214.173 46.1341V95.716H203.385Z" fill="#333333"/>
<path d="M240.322 44.8484C240.821 44.8484 241.251 44.9197 241.607 44.991C240.678 43.634 238.534 42.8474 236.319 42.8474C232.89 42.8474 229.318 44.7771 229.318 51.1344V80.2828C229.318 89.9268 231.39 92.0705 236.177 92.0705C242.465 92.0705 243.463 88.6411 243.463 84.0686C243.463 82.9968 243.321 81.5685 243.036 80.568H246.18C246.322 81.925 246.465 83.4246 246.465 84.7839C246.465 91.4287 243.822 96.429 233.605 96.429C222.533 96.429 218.674 91.9992 218.674 77.8539V58.207C218.674 45.9179 220.031 39.5606 233.677 39.5606C243.751 39.5606 247.394 44.9197 247.394 50.6353C247.394 54.6351 244.609 57.3514 240.821 57.3514C237.463 57.3514 234.463 54.5661 234.463 50.9228C234.463 47.2082 237.249 44.8507 240.322 44.8507V44.8484Z" fill="#333333"/>
<path d="M279.473 63.5661V72.4258C279.473 87.2864 278.258 90.3592 276.043 93.0733C274.33 95.2169 270.827 96.4313 264.969 96.4313C259.253 96.4313 255.753 95.2169 254.039 93.0733C251.824 90.3592 250.61 87.2864 250.61 72.4258V63.5661C250.61 48.7056 251.824 45.6327 254.039 42.9187C255.755 40.775 259.255 39.5606 264.969 39.5606C270.827 39.5606 274.328 40.775 276.043 42.9187C278.258 45.6327 279.473 48.7056 279.473 63.5661ZM268.828 86.785V48.7769C268.828 45.4188 268.757 42.9187 264.971 42.9187C263.685 42.9187 262.97 43.2039 262.542 43.5627C261.827 44.0618 261.256 45.2785 261.256 48.7792V86.7873C261.256 90.5731 261.827 91.8589 262.542 92.4316C262.97 92.7881 263.685 93.0756 264.971 93.0756C266.328 93.0756 267.043 92.7904 267.542 92.4316C268.258 91.8612 268.828 90.5731 268.828 86.7873V86.785Z" fill="#333333"/>
<path d="M284.117 95.716V40.2759H294.904V95.716H284.117Z" fill="#333333"/>
<path d="M317.837 95.716V46.8494C317.837 45.9915 317.265 45.4924 316.338 45.4924C314.909 45.4924 312.766 46.6355 310.836 48.1352V95.716H300.049V40.2759H310.836V44.7771C313.621 42.2057 317.122 39.5606 321.837 39.5606C325.766 39.5606 328.624 41.9895 328.624 46.1341V95.716H317.837Z" fill="#333333"/>
</svg>
