<svg width="329" height="110" viewBox="0 0 329 110" fill="none" xmlns="http://www.w3.org/2000/svg">
<g clip-path="url(#clip0_175_41)">
<path fill-rule="evenodd" clip-rule="evenodd" d="M54.7363 0.945686C84.4435 0.945686 108.527 25.0294 108.527 54.7366C108.527 84.4439 84.4435 108.528 54.7363 108.528C25.029 108.528 0.945312 84.4439 0.945312 54.7366C0.945312 25.0294 25.0267 0.945686 54.7363 0.945686Z" fill="#FFCC00"/>
<path d="M54.7363 0.00037384C69.8521 0.00037384 83.535 6.12767 93.4413 16.0316C103.345 25.9356 109.473 39.6208 109.473 54.7366C109.473 69.8525 103.345 83.5354 93.4413 93.4417C83.5373 103.346 69.8521 109.473 54.7363 109.473C39.6204 109.473 25.9375 103.346 16.0313 93.4417C6.1273 83.5377 0 69.8525 0 54.7366C0 39.6208 6.1273 25.9379 16.0313 16.0316C25.9352 6.12767 39.6204 0.00037384 54.7363 0.00037384ZM92.1027 17.368C82.5391 7.8044 69.3277 1.8887 54.7363 1.8887C40.1425 1.8887 26.9311 7.8044 17.3699 17.368C7.80632 26.9315 1.89293 40.1429 1.89293 54.7343C1.89293 69.3281 7.80862 82.5395 17.3699 92.1007C26.9334 101.664 40.1448 107.58 54.7363 107.58C69.33 107.58 82.5414 101.664 92.1027 92.1007C101.666 82.5372 107.582 69.3258 107.582 54.7343C107.582 40.1406 101.666 26.9292 92.1027 17.368Z" fill="#333333"/>
<path d="M54.7363 6.49567C68.0581 6.49567 80.1195 11.8962 88.8482 20.6248C97.5768 29.3534 102.977 41.4148 102.977 54.7366C102.977 68.0584 97.5768 80.1199 88.8482 88.8485C80.1195 97.5771 68.0581 102.978 54.7363 102.978C41.4145 102.978 29.3531 97.5771 20.6245 88.8485C11.8958 80.1199 6.49536 68.0584 6.49536 54.7366C6.49536 41.4148 11.8958 29.3534 20.6245 20.6248C29.3531 11.8962 41.4145 6.49567 54.7363 6.49567ZM88.5791 20.8916C79.9171 12.2297 67.9523 6.87288 54.7363 6.87288C41.5203 6.87288 29.5532 12.2297 20.8936 20.8916C12.2317 29.5535 6.87487 41.5183 6.87487 54.7343C6.87487 67.9503 12.2317 79.9174 20.8936 88.5771C29.5555 97.239 41.5203 102.596 54.7363 102.596C67.9523 102.596 79.9194 97.239 88.5791 88.5771C97.241 79.9151 102.598 67.9503 102.598 54.7343C102.598 41.5183 97.241 29.5512 88.5791 20.8916Z" fill="#333333"/>
<path fill-rule="evenodd" clip-rule="evenodd" d="M57.096 3.98174L57.0661 4.92015C55.5136 4.86955 54.0278 4.86265 52.4753 4.92015L52.4408 3.97944C53.2021 3.94494 53.9657 3.92654 54.7362 3.92654C55.5274 3.92654 56.314 3.94724 57.096 3.98174ZM60.8612 4.29454L61.3281 4.34974C62.1124 4.45094 62.8921 4.57055 63.6649 4.70855L63.5108 5.63546C62.5839 5.48366 61.6731 5.34566 60.7416 5.22606L60.8612 4.29224V4.29454ZM67.3588 5.50666L67.4899 5.54116C68.3639 5.76657 69.2287 6.01727 70.082 6.28867L69.8106 7.18799C68.9113 6.91658 68.0258 6.66128 67.1173 6.41978L67.3588 5.50896V5.50666ZM73.6402 7.56059C74.5188 7.9125 75.3859 8.28971 76.2392 8.68991L75.8528 9.54323C74.9972 9.15682 74.1531 8.78651 73.2837 8.43001L73.6402 7.55829V7.56059ZM79.5996 10.4172L80.0113 10.6495C80.6967 11.0405 81.3683 11.45 82.0307 11.8732L81.5339 12.6713C80.7404 12.1768 79.9492 11.7007 79.135 11.2384L79.5996 10.4195V10.4172ZM85.26 14.1134C85.9753 14.6516 86.6745 15.2105 87.3599 15.7832L86.7665 16.51C86.0397 15.9166 85.3175 15.3416 84.57 14.7735L85.1381 14.0214L85.2577 14.1134H85.26ZM90.1637 18.3179C90.8399 18.9757 91.5 19.6542 92.1394 20.3488L91.4563 20.9928C90.8123 20.3097 90.1706 19.6473 89.5035 18.9872L90.1637 18.3179ZM94.8235 23.5136C95.3272 24.16 95.8171 24.8201 96.291 25.4917L95.5273 26.0414C94.9799 25.2824 94.4302 24.5418 93.8529 23.8058L94.5935 23.2238L94.8235 23.5159V23.5136ZM98.3518 28.6588C98.8371 29.4684 99.2994 30.2919 99.7387 31.1314L98.9153 31.5776C98.4668 30.7519 98.0183 29.9468 97.5399 29.1395L98.3495 28.6611L98.3518 28.6588ZM101.372 34.5377L101.56 34.9724C101.869 35.6946 102.156 36.4284 102.43 37.169L101.551 37.5025C101.218 36.6262 100.875 35.7682 100.509 34.9057L101.374 34.54L101.372 34.5377ZM103.6 40.7593L103.653 40.9525C103.89 41.7943 104.104 42.6476 104.3 43.5056L103.384 43.7218C103.168 42.8087 102.94 41.9162 102.692 41.01L103.6 40.7593ZM104.992 47.2201C105.13 48.1493 105.24 49.0878 105.328 50.0354L104.394 50.1297C104.3 49.1959 104.189 48.2804 104.06 47.3512L104.992 47.2201ZM105.535 53.8074C105.539 54.1156 105.546 54.4261 105.546 54.7366C105.546 55.3761 105.53 56.0086 105.507 56.6411L104.571 56.6181C104.596 55.6797 104.606 54.7573 104.594 53.8212L105.535 53.8097V53.8074ZM105.229 60.4085C105.123 61.3516 104.994 62.2877 104.838 63.2146L103.913 63.0743C104.054 62.1474 104.187 61.2342 104.295 60.3027L105.231 60.4108L105.229 60.4085ZM104.072 66.9153L103.959 67.373C103.764 68.139 103.55 68.8957 103.32 69.6478L102.418 69.3856C102.68 68.484 102.931 67.5961 103.159 66.6876L104.072 66.9153ZM102.078 73.2151L102.016 73.3784C101.689 74.2042 101.34 75.0207 100.972 75.8257L100.111 75.4439C100.493 74.586 100.852 73.7372 101.204 72.8655L102.076 73.2151H102.078ZM99.2741 79.1998C98.8187 80.0278 98.338 80.8421 97.8389 81.6425L97.0385 81.1572C97.5261 80.3545 97.9953 79.5609 98.453 78.7421L99.2741 79.2021V79.1998ZM95.7159 84.7705L95.4353 85.15C94.9638 85.7825 94.4762 86.4012 93.9771 87.0085L93.2434 86.4196C93.8322 85.6882 94.4003 84.9591 94.9615 84.207L95.7136 84.7705H95.7159ZM91.3643 89.9433C90.7456 90.5873 90.1062 91.2152 89.4552 91.827L88.8043 91.1531C89.4782 90.4999 90.1384 89.8559 90.7916 89.1797L91.4701 89.8352L91.3643 89.9433ZM86.6032 94.3065L86.2352 94.6032C85.6188 95.0908 84.9886 95.5646 84.3492 96.0246L83.7926 95.2702C84.547 94.7113 85.283 94.1547 86.019 93.5705L86.6055 94.3065H86.6032ZM81.2027 98.1153L80.952 98.2671C80.2275 98.7041 79.4915 99.1227 78.744 99.5253L78.2909 98.7018C79.1143 98.2487 79.9124 97.791 80.7197 97.308L81.2027 98.1153ZM75.3514 101.186C74.4912 101.568 73.6149 101.926 72.7294 102.262L72.3867 101.391C73.2607 101.048 74.114 100.698 74.9742 100.323L75.3514 101.186ZM69.1482 103.468L68.6951 103.601C67.9407 103.817 67.1771 104.015 66.4089 104.194L66.1812 103.284C67.092 103.056 67.9844 102.824 68.8837 102.561L69.1459 103.465L69.1482 103.468ZM62.7012 104.921L62.2435 104.99C61.4638 105.105 60.6795 105.204 59.8883 105.285L59.7825 104.351C60.714 104.245 61.6294 104.13 62.5563 103.99L62.6989 104.921H62.7012ZM56.1185 105.526L55.9069 105.531C55.5159 105.54 55.1272 105.544 54.7339 105.544C54.2486 105.544 53.7656 105.535 53.2826 105.521L53.2941 104.583C54.2348 104.595 55.1571 104.599 56.0978 104.581L56.1162 105.524L56.1185 105.526ZM49.3955 105.266C48.4893 105.172 47.5923 105.052 46.7022 104.912L46.8379 103.983C47.7671 104.118 48.6802 104.24 49.614 104.342L49.5128 105.28L49.3955 105.268V105.266ZM42.9945 104.181C42.0722 103.962 41.1591 103.718 40.2575 103.449L40.5128 102.548C41.4144 102.803 42.3068 103.042 43.2176 103.265L42.9945 104.181ZM36.6763 102.239C35.7908 101.903 34.9168 101.542 34.0566 101.161L34.4269 100.3C35.2894 100.671 36.1404 101.025 37.0167 101.365L36.6763 102.242V102.239ZM30.3213 99.3068C29.606 98.9157 28.9022 98.5063 28.2099 98.0808L28.6929 97.2735C29.4956 97.7542 30.2937 98.2165 31.1148 98.665L30.664 99.4931L30.3213 99.3068ZM25.0634 95.9855C24.2952 95.4335 23.5454 94.8585 22.8117 94.2651L23.3913 93.5291C24.1296 94.1087 24.861 94.6722 25.6177 95.2242L25.0634 95.9855ZM19.9619 91.7833L19.6192 91.459C19.0488 90.9162 18.4922 90.3596 17.9494 89.7892L18.6233 89.1314C19.2788 89.803 19.9343 90.4539 20.6129 91.1025L19.9642 91.7833H19.9619ZM15.3757 86.8728C14.8007 86.1712 14.2464 85.4513 13.7104 84.7199L14.4626 84.1564C15.0238 84.9062 15.585 85.6376 16.1784 86.3621L15.447 86.9579L15.3757 86.8705V86.8728ZM11.5921 81.5896L11.3437 81.1871C10.932 80.5155 10.5387 79.8346 10.1592 79.1423L10.9757 78.68C11.4403 79.4965 11.9026 80.2946 12.3948 81.0951L11.5944 81.5873L11.5921 81.5896ZM8.46406 75.7682L8.35136 75.5198C8.00175 74.7424 7.67285 73.9535 7.36234 73.1576L8.23406 72.808C8.58366 73.6797 8.94247 74.5285 9.32197 75.3864L8.46176 75.7682H8.46406ZM6.12492 69.5857C5.85122 68.6841 5.60052 67.7733 5.37511 66.8532L6.28363 66.6209C6.51823 67.5294 6.75973 68.4196 7.02654 69.3189L6.12492 69.588V69.5857ZM4.6161 63.1525L4.5379 62.6856C4.416 61.9105 4.3125 61.1307 4.22739 60.3441L5.15891 60.2314C5.26931 61.1629 5.39581 62.0761 5.54302 63.003L4.6161 63.1502V63.1525ZM3.95599 56.5767L3.93989 56.1052C3.92609 55.6521 3.91919 55.1944 3.91919 54.7389C3.91919 54.4054 3.92609 54.0742 3.93069 53.743L4.8691 53.7499C4.8622 54.6883 4.8668 55.6107 4.8967 56.5468L3.95599 56.5767ZM4.14459 49.971L4.18829 49.5018C4.26879 48.7151 4.3677 47.9331 4.485 47.158L5.41651 47.2891C5.28771 48.2183 5.17501 49.1338 5.08071 50.0676L4.14689 49.9733L4.14459 49.971ZM5.26931 43.0686C5.45791 42.2704 5.66262 41.4815 5.88802 40.6972L6.79424 40.941C6.55043 41.8472 6.31583 42.7397 6.10422 43.6528L5.18421 43.4412L5.27161 43.0663L5.26931 43.0686ZM7.06564 37.1069C7.39454 36.2191 7.74875 35.3427 8.12596 34.4779L8.99077 34.8436C8.62506 35.7084 8.28006 36.5641 7.94655 37.4404L7.06794 37.1069H7.06564ZM9.76128 31.0739L9.98209 30.6553C10.357 29.9606 10.7457 29.2775 11.1528 28.6036L11.9624 29.0751C11.4909 29.8871 11.0332 30.6875 10.5916 31.5178L9.76128 31.0739ZM13.2159 25.4388L13.3378 25.2663C13.8461 24.5533 14.3729 23.8564 14.918 23.1709L15.6609 23.746C15.0859 24.4889 14.5316 25.2249 13.9818 25.9862L13.2182 25.4365L13.2159 25.4388ZM17.3744 20.3005C18.0161 19.6059 18.6739 18.9297 19.3524 18.2719L20.0148 18.9343C19.3501 19.599 18.7038 20.2545 18.0644 20.9422L17.3744 20.3005ZM22.1608 15.7418L22.5242 15.4405C23.1337 14.9414 23.7524 14.4561 24.3826 13.9846L24.9553 14.7321C24.2101 15.3025 23.4856 15.8729 22.7611 16.4709L22.1608 15.7441V15.7418ZM27.4946 11.8387C28.2904 11.3327 29.1023 10.8473 29.928 10.385L30.3949 11.1993C29.5807 11.6662 28.7895 12.14 27.9914 12.6345L27.4946 11.8364V11.8387ZM33.2907 8.66231L33.7185 8.46221C34.4338 8.1356 35.1583 7.8274 35.892 7.53529L36.2531 8.40241C35.386 8.76351 34.5373 9.12462 33.684 9.51793L33.2907 8.66231ZM39.8205 6.15067C40.5979 5.91147 41.3822 5.69066 42.1757 5.49056L42.4195 6.39678C41.5133 6.64058 40.6255 6.88898 39.7285 7.16729L39.4479 6.26797L39.8182 6.15297L39.8205 6.15067ZM46.0122 4.67405C46.8931 4.52225 47.7809 4.39344 48.6756 4.28764L48.7998 5.21686C47.8706 5.34106 46.9575 5.46986 46.0329 5.62856L45.8719 4.69935L46.0145 4.67405H46.0122Z" fill="#333333"/>
<path fill-rule="evenodd" clip-rule="evenodd" d="M63.0831 19.1505C69.5968 20.6731 75.4389 23.9369 80.0942 28.4265V81.0468C75.4389 85.5364 69.5968 88.8002 63.0831 90.3228V61.669H46.3848V90.3228C39.8711 88.8002 34.0291 85.5364 29.3738 81.0468V28.4265C34.0291 23.9392 39.8711 20.6731 46.3848 19.1505V47.8043H63.0831V19.1505Z" fill="#343434"/>
<path d="M122.36 27.4306C122.461 28.8566 123.031 29.9952 124.076 30.8485C125.12 31.7018 126.445 32.1273 128.05 32.1273C129.494 32.1273 130.665 31.8122 131.558 31.1797C132.45 30.5472 132.896 29.6685 132.896 28.5461C132.896 27.7227 132.65 27.0718 132.158 26.5888C131.666 26.1081 131.033 25.7516 130.26 25.5193C129.487 25.2893 128.439 25.0616 127.114 24.8431C125.007 24.482 123.33 23.8909 122.086 23.0674C120.842 22.244 120.218 20.91 120.218 19.0631C120.218 17.8786 120.52 16.8297 121.122 15.9166C121.725 15.0035 122.571 14.2951 123.666 13.7937C124.761 13.2923 126.01 13.0416 127.415 13.0416C128.901 13.0416 130.214 13.313 131.36 13.8535C132.503 14.3963 133.407 15.153 134.069 16.1259C134.732 17.0988 135.102 18.219 135.182 19.4817H132.593C132.432 18.2581 131.88 17.2736 130.937 16.5307C129.994 15.7878 128.818 15.4175 127.413 15.4175C126.008 15.4175 124.894 15.7234 124.071 16.3352C123.247 16.947 122.836 17.805 122.836 18.909C122.836 19.7117 123.077 20.3396 123.558 20.7904C124.039 21.2412 124.662 21.5839 125.423 21.8139C126.187 22.0439 127.229 22.2716 128.554 22.4901C130.661 22.8512 132.346 23.4492 133.611 24.2819C134.876 25.1145 135.509 26.4554 135.509 28.3C135.509 29.5052 135.194 30.5771 134.561 31.5224C133.929 32.4654 133.046 33.1991 131.912 33.7212C130.778 34.2433 129.478 34.5032 128.013 34.5032C126.369 34.5032 124.933 34.2065 123.707 33.6154C122.484 33.0243 121.534 32.1894 120.862 31.1176C120.191 30.0435 119.823 28.8152 119.763 27.4306H122.353H122.36Z" fill="white"/>
<path d="M138.828 13.221H141.445V22.4027H152.345V13.221H154.963V34.3261H152.345V24.8132H141.445V34.3261H138.828V13.221Z" fill="white"/>
<path d="M159.057 13.2509H161.676V34.3261H159.057V13.2509Z" fill="white"/>
<path d="M163.995 13.2509H166.764L173.207 31.2257L179.619 13.2509H182.328L174.743 34.3261H171.58L163.995 13.2509Z" fill="white"/>
<path d="M192.716 13.2509C194.1 13.2509 195.324 13.5177 196.389 14.049C197.451 14.5803 198.275 15.3324 198.857 16.3076C199.439 17.2805 199.731 18.4191 199.731 19.7232C199.731 21.1883 199.324 22.4579 198.512 23.532C197.7 24.6062 196.609 25.333 195.246 25.7148L199.972 34.3238H197.021L192.656 26.2254H187.267V34.3238H184.647V13.2509H192.716ZM187.267 23.8173H192.506C193.891 23.8173 194.995 23.4469 195.818 22.704C196.642 21.9611 197.053 20.9675 197.053 19.7232C197.053 18.4996 196.642 17.5152 195.818 16.7722C194.995 16.0293 193.902 15.659 192.536 15.659H187.267V23.8173Z" fill="white"/>
<path d="M200.904 34.3261L208.942 13.2532H212.043L220.051 34.3261H217.252L215.023 28.6358H205.842L203.613 34.3261H200.904ZM206.624 26.2576H214.239L210.417 16.1121L206.624 26.2576Z" fill="white"/>
<path d="M222.43 13.2509H225.047V34.3261H222.43V13.2509Z" fill="white"/>
<path d="M118.868 95.7164V40.2763H129.655V63.8517H136.657V40.2763H147.444V95.7164H136.657V67.7825H129.655V95.7164H118.868Z" fill="#FFCC00"/>
<path d="M180.953 63.5665V72.4262C180.953 87.2868 179.739 90.3596 177.524 93.0736C175.81 95.2173 172.307 96.4317 166.449 96.4317C160.733 96.4317 157.233 95.2173 155.519 93.0736C153.304 90.3596 152.09 87.2868 152.09 72.4262V63.5665C152.09 48.7059 153.304 45.6331 155.519 42.9191C157.235 40.7754 160.736 39.561 166.449 39.561C172.307 39.561 175.808 40.7754 177.524 42.9191C179.739 45.6331 180.953 48.7059 180.953 63.5665ZM170.308 86.7853V48.7772C170.308 45.4192 170.237 42.9191 166.451 42.9191C165.166 42.9191 164.45 43.2043 164.022 43.5631C163.307 44.0622 162.737 45.2789 162.737 48.7795V86.7876C162.737 90.5735 163.307 91.8592 164.022 92.4319C164.45 92.7884 165.166 93.076 166.451 93.076C167.808 93.076 168.524 92.7907 169.023 92.4319C169.738 91.8615 170.308 90.5735 170.308 86.7876V86.7853Z" fill="#FFCC00"/>
<path d="M203.385 95.7164V46.8498C203.385 45.9919 202.813 45.4928 201.886 45.4928C200.457 45.4928 198.314 46.6359 196.384 48.1355V95.7164H185.597V40.2763H196.384V44.7775C199.169 42.206 202.67 39.561 207.385 39.561C211.314 39.561 214.173 41.9898 214.173 46.1345V95.7164H203.385Z" fill="#FFCC00"/>
<path d="M240.322 44.8488C240.821 44.8488 241.251 44.9201 241.607 44.9914C240.678 43.6344 238.534 42.8477 236.319 42.8477C232.89 42.8477 229.318 44.7775 229.318 51.1348V80.2831C229.318 89.9272 231.39 92.0708 236.177 92.0708C242.465 92.0708 243.463 88.6415 243.463 84.069C243.463 82.9972 243.321 81.5689 243.036 80.5684H246.18C246.322 81.9254 246.465 83.425 246.465 84.7843C246.465 91.4291 243.822 96.4294 233.605 96.4294C222.533 96.4294 218.674 91.9995 218.674 77.8543V58.2074C218.674 45.9183 220.031 39.561 233.677 39.561C243.751 39.561 247.394 44.9201 247.394 50.6357C247.394 54.6354 244.609 57.3518 240.821 57.3518C237.463 57.3518 234.463 54.5664 234.463 50.9232C234.463 47.2086 237.249 44.8511 240.322 44.8511V44.8488Z" fill="#FFCC00"/>
<path d="M279.473 63.5665V72.4262C279.473 87.2868 278.258 90.3596 276.043 93.0736C274.33 95.2173 270.827 96.4317 264.969 96.4317C259.253 96.4317 255.753 95.2173 254.039 93.0736C251.824 90.3596 250.61 87.2868 250.61 72.4262V63.5665C250.61 48.7059 251.824 45.6331 254.039 42.9191C255.755 40.7754 259.255 39.561 264.969 39.561C270.827 39.561 274.328 40.7754 276.043 42.9191C278.258 45.6331 279.473 48.7059 279.473 63.5665ZM268.828 86.7853V48.7772C268.828 45.4192 268.757 42.9191 264.971 42.9191C263.685 42.9191 262.97 43.2043 262.542 43.5631C261.827 44.0622 261.256 45.2789 261.256 48.7795V86.7876C261.256 90.5735 261.827 91.8592 262.542 92.4319C262.97 92.7884 263.685 93.076 264.971 93.076C266.328 93.076 267.043 92.7907 267.542 92.4319C268.258 91.8615 268.828 90.5735 268.828 86.7876V86.7853Z" fill="#FFCC00"/>
<path d="M284.117 95.7164V40.2763H294.904V95.7164H284.117Z" fill="#FFCC00"/>
<path d="M317.837 95.7164V46.8498C317.837 45.9919 317.265 45.4928 316.338 45.4928C314.909 45.4928 312.766 46.6359 310.836 48.1355V95.7164H300.049V40.2763H310.836V44.7775C313.621 42.206 317.122 39.561 321.837 39.561C325.766 39.561 328.624 41.9898 328.624 46.1345V95.7164H317.837Z" fill="#FFCC00"/>
</g>
<defs>
<clipPath id="clip0_175_41">
<rect width="328.625" height="109.471" fill="white"/>
</clipPath>
</defs>
</svg>
